<?xml version="1.0" standalone="no"?>
<!DOCTYPE svg PUBLIC "-//W3C//DTD SVG 20010904//EN"
 "http://www.w3.org/TR/2001/REC-SVG-20010904/DTD/svg10.dtd">
<svg version="1.0" xmlns="http://www.w3.org/2000/svg"
 width="1584.000000pt" height="396.000000pt" viewBox="0 0 1584.000000 396.000000"
 preserveAspectRatio="xMidYMid meet">

<g transform="translate(0.000000,396.000000) scale(0.100000,-0.100000)"
fill="#000000" stroke="none">
<path d="M8770 2732 c-257 -25 -410 -195 -410 -453 0 -146 35 -251 110 -333
83 -90 200 -136 345 -136 214 0 359 99 284 195 -19 23 -27 26 -63 22 -23 -3
-68 -15 -101 -27 -112 -41 -251 -13 -309 62 -48 64 -70 171 -55 276 16 110 62
172 153 207 62 24 184 17 243 -13 73 -38 123 -26 143 33 28 84 -68 149 -245
164 -38 3 -81 5 -95 3z"/>
<path d="M6500 2711 c-106 -34 -150 -69 -150 -119 0 -45 76 -90 106 -63 21 19
112 41 173 41 85 0 127 -23 137 -74 8 -48 -2 -83 -32 -111 -28 -26 -64 -35
-144 -35 -46 0 -60 -4 -78 -23 -25 -27 -28 -73 -6 -102 12 -17 30 -21 112 -25
120 -7 152 -21 171 -77 13 -37 13 -45 -3 -82 -34 -75 -151 -93 -295 -45 -90
31 -124 27 -144 -14 -36 -70 38 -133 191 -163 198 -38 385 36 430 170 37 109
-18 251 -110 283 -35 12 -35 20 0 40 84 50 118 184 71 282 -26 57 -81 100
-152 121 -69 20 -208 19 -277 -4z"/>
<path d="M9297 2718 c-9 -7 -21 -26 -27 -41 -14 -40 -14 -788 1 -820 17 -38
78 -58 123 -41 36 14 41 45 46 297 l5 247 103 -184 c57 -101 112 -193 123
-205 28 -29 89 -29 116 2 11 12 46 69 78 127 31 58 78 141 104 185 l46 80 5
-258 c5 -257 5 -259 29 -278 32 -26 84 -24 115 4 l26 22 1 413 1 414 -23 24
c-24 26 -84 33 -119 14 -20 -10 -60 -76 -142 -230 -26 -47 -75 -138 -111 -203
-64 -116 -66 -118 -80 -95 -8 12 -74 132 -147 266 -73 133 -142 249 -153 257
-26 18 -97 20 -120 3z"/>
<path d="M5540 2713 c-8 -3 -22 -16 -32 -27 -16 -19 -17 -55 -17 -421 0 -368
1 -402 17 -421 40 -48 121 -43 152 9 17 28 20 51 20 175 l0 142 78 0 c90 0
112 -11 143 -73 12 -23 26 -45 31 -48 5 -3 8 -8 7 -10 -6 -7 83 -164 109 -191
34 -37 85 -46 129 -23 50 27 45 67 -20 186 -65 119 -74 131 -115 157 l-34 20
35 11 c49 17 112 74 137 126 49 101 17 269 -61 327 -77 56 -106 62 -344 65
-121 1 -227 -1 -235 -4z m410 -159 c48 -19 70 -55 70 -114 0 -101 -51 -130
-225 -130 l-115 0 0 130 0 130 115 0 c82 0 126 -5 155 -16z"/>
<path d="M7544 2708 c-42 -20 -44 -42 -44 -449 l0 -391 29 -29 c39 -39 100
-41 136 -4 24 23 25 30 26 162 1 76 0 146 -1 157 -1 17 5 18 83 15 67 -3 90
-8 106 -24 12 -10 51 -75 87 -142 36 -68 77 -137 91 -153 38 -45 119 -53 157
-14 27 26 18 73 -30 163 -58 107 -88 148 -126 171 l-30 18 35 11 c53 18 112
74 137 133 31 73 26 194 -12 260 -33 54 -91 97 -160 115 -64 16 -451 17 -484
1z m436 -163 c49 -29 68 -87 48 -147 -11 -35 -22 -47 -58 -66 -40 -20 -57 -22
-160 -20 l-115 3 -1 115 c-1 63 1 121 4 128 4 11 31 13 126 10 100 -2 127 -7
156 -23z"/>
<path d="M8916 1640 l-66 -63 0 56 c0 50 -2 57 -20 57 -19 0 -20 -7 -20 -125
0 -118 1 -125 20 -125 18 0 20 7 20 62 l0 62 63 -62 c34 -34 68 -62 75 -62 24
0 11 25 -40 77 l-52 53 54 55 c41 41 51 58 43 66 -9 9 -28 -4 -77 -51z"/>
<path d="M9133 1692 c-12 -8 -113 -224 -113 -243 0 -20 35 -3 48 24 12 25 17
27 77 27 61 0 63 -1 74 -30 9 -28 34 -40 44 -22 6 8 -89 222 -106 239 -7 7
-17 9 -24 5z m57 -158 c0 -2 -20 -4 -45 -4 -25 0 -45 4 -45 9 0 5 9 31 21 58
l21 48 24 -54 c13 -29 24 -55 24 -57z"/>
<path d="M10144 1690 c-98 -30 -115 -188 -24 -235 33 -17 96 -20 134 -5 23 8
26 15 26 58 0 26 -5 53 -12 60 -13 13 -47 16 -72 6 -21 -8 -2 -34 25 -34 14 0
19 -7 19 -29 0 -23 -5 -30 -25 -33 -68 -13 -110 25 -108 96 3 73 65 103 146
71 20 -8 24 17 5 33 -20 16 -79 22 -114 12z"/>
<path d="M10654 1690 c-46 -14 -76 -52 -81 -104 -10 -87 38 -146 119 -146 72
0 118 50 118 127 0 88 -75 147 -156 123z m86 -50 c20 -20 24 -39 21 -94 -4
-80 -105 -98 -136 -24 -37 90 52 181 115 118z"/>
<path d="M4154 1677 c-2 -7 -3 -62 -2 -123 2 -89 6 -109 18 -109 11 0 16 14
18 50 l3 51 33 -4 c26 -3 37 -12 56 -48 23 -42 46 -61 59 -49 3 4 -6 29 -21
56 -19 37 -23 51 -13 57 16 9 35 46 35 67 0 9 -11 27 -25 40 -21 22 -33 25
-90 25 -45 0 -67 -4 -71 -13z m134 -29 c33 -33 -1 -78 -59 -78 l-39 0 0 45 0
45 43 0 c24 0 48 -5 55 -12z"/>
<path d="M4397 1673 c-7 -24 -7 -193 -1 -215 5 -15 18 -18 85 -18 62 0 79 3
79 15 0 10 -16 15 -62 17 l-63 3 -3 38 c-3 34 -1 37 25 38 15 1 41 2 57 3 16
0 31 6 33 13 3 8 -14 13 -54 15 l-58 3 -3 38 -3 37 65 0 c52 0 66 3 66 15 0
12 -15 15 -79 15 -67 0 -80 -3 -84 -17z"/>
<path d="M4615 1678 c-3 -8 -4 -63 -3 -124 l3 -109 75 0 c60 0 75 3 75 15 0
11 -14 16 -57 18 l-57 3 -3 101 c-2 70 -7 103 -15 106 -7 2 -15 -3 -18 -10z"/>
<path d="M4815 1678 c-3 -8 -4 -63 -3 -124 2 -89 6 -109 18 -109 12 0 15 20
15 119 0 87 -3 120 -12 123 -7 3 -15 -2 -18 -9z"/>
<path d="M4991 1671 c-24 -44 -91 -206 -91 -219 0 -21 24 -9 38 21 12 25 17
27 80 27 66 0 68 -1 79 -30 10 -27 43 -43 43 -21 0 5 -25 61 -55 125 -54 116
-74 136 -94 97z m49 -77 c11 -25 20 -50 20 -55 0 -5 -20 -9 -45 -9 -25 0 -45
4 -45 9 0 12 40 101 46 101 3 0 14 -21 24 -46z"/>
<path d="M5184 1677 c-2 -7 -3 -62 -2 -123 l3 -109 59 -3 c70 -4 114 12 127
45 10 26 -3 62 -28 76 -12 8 -11 12 6 28 27 25 27 53 -1 79 -17 16 -35 20 -90
20 -48 0 -70 -4 -74 -13z m144 -46 c5 -32 -21 -51 -70 -51 -38 0 -38 0 -38 41
l0 40 53 -3 c47 -3 52 -6 55 -27z m-16 -80 c10 -1 20 -12 24 -28 9 -35 -16
-53 -73 -53 l-43 0 0 43 0 44 38 -3 c20 -2 45 -3 54 -3z"/>
<path d="M5435 1678 c-3 -8 -4 -63 -3 -124 l3 -109 75 0 c60 0 75 3 75 15 0
11 -14 16 -57 18 l-57 3 -3 101 c-2 70 -7 103 -15 106 -7 2 -15 -3 -18 -10z"/>
<path d="M5634 1677 c-2 -7 -3 -62 -2 -123 l3 -109 78 0 c93 0 109 19 20 23
l-63 3 0 42 0 43 35 -4 c19 -2 46 -1 60 2 46 12 26 26 -35 26 l-60 0 0 40 0
40 60 0 c47 0 60 3 60 15 0 20 -148 22 -156 2z"/>
<path d="M5947 1683 c-13 -12 -8 -218 5 -231 17 -17 113 -15 147 3 46 23 53
58 20 94 -19 20 -20 24 -5 40 23 25 20 67 -6 85 -23 16 -148 23 -161 9z m141
-59 c3 -35 -12 -44 -75 -44 -32 0 -33 1 -33 41 l0 40 53 -3 c50 -3 52 -4 55
-34z m-4 -80 c22 -9 20 -51 -3 -64 -11 -5 -38 -10 -60 -10 l-41 0 0 40 0 40
44 0 c24 0 51 -3 60 -6z"/>
<path d="M6192 1568 c3 -101 6 -123 18 -123 12 0 15 22 18 123 3 117 2 122
-18 122 -20 0 -21 -5 -18 -122z"/>
<path d="M6297 1684 c-9 -9 -9 -206 -1 -228 5 -12 21 -16 73 -16 73 0 107 13
81 30 -8 5 -38 10 -67 10 l-52 0 -3 102 c-3 94 -11 121 -31 102z"/>
<path d="M6496 1674 c-12 -30 -6 -200 7 -218 17 -23 152 -20 152 4 0 11 -15
16 -62 18 l-63 3 0 104 c0 83 -3 105 -14 105 -8 0 -17 -7 -20 -16z"/>
<path d="M6700 1565 c0 -115 2 -126 18 -123 15 3 17 17 17 123 0 106 -2 120
-17 123 -16 3 -18 -8 -18 -123z"/>
<path d="M6800 1565 c0 -104 3 -125 15 -125 18 0 24 25 27 113 l3 68 58 -79
c69 -96 85 -111 97 -93 9 16 13 201 4 224 -3 9 -12 17 -20 17 -10 0 -14 -22
-16 -87 l-3 -88 -70 88 c-38 48 -75 87 -82 87 -10 0 -13 -29 -13 -125z"/>
<path d="M7123 1680 c-52 -21 -80 -123 -49 -178 20 -37 66 -62 114 -62 69 0
82 12 82 75 l0 55 -46 0 c-27 0 -43 -4 -39 -10 3 -5 17 -10 31 -10 21 0 24 -5
24 -34 0 -52 -58 -64 -107 -22 -24 21 -28 32 -28 76 0 43 4 55 25 72 25 20 78
21 123 3 24 -10 23 21 -2 35 -24 12 -97 12 -128 0z"/>
<path d="M7520 1565 c0 -118 1 -125 20 -125 17 0 20 7 20 50 0 49 1 50 30 50
26 0 36 -8 62 -50 29 -47 46 -59 61 -44 7 8 -28 80 -43 89 -6 4 0 15 15 27 32
25 34 79 5 108 -16 16 -33 20 -95 20 l-75 0 0 -125z m134 82 c11 -8 17 -23 14
-37 -2 -19 -12 -26 -41 -33 -54 -13 -67 -5 -67 43 0 40 0 40 38 40 21 0 46 -6
56 -13z"/>
<path d="M7768 1673 c-6 -30 -2 -209 6 -221 4 -8 36 -12 82 -12 66 0 75 2 72
18 -2 13 -15 18 -61 20 l-57 3 0 34 0 35 53 0 c58 0 68 4 60 26 -3 10 -22 14
-59 14 l-54 0 0 35 0 35 60 0 c47 0 60 3 60 15 0 12 -15 15 -79 15 -67 0 -79
-3 -83 -17z"/>
<path d="M7982 1568 c3 -107 5 -123 20 -126 15 -3 18 8 20 80 l3 83 35 -63
c21 -37 41 -61 49 -60 8 2 28 29 45 60 17 32 35 58 39 58 5 0 8 -30 7 -67 -3
-90 -2 -93 15 -93 13 0 15 21 15 125 0 106 -2 125 -15 125 -9 0 -23 -12 -31
-27 -9 -16 -29 -52 -46 -82 l-30 -54 -45 81 c-32 59 -50 82 -64 82 -19 0 -19
-7 -17 -122z"/>
<path d="M8334 1593 c-53 -115 -64 -153 -41 -153 8 0 20 14 27 30 12 29 15 30
76 30 59 0 64 -2 76 -27 13 -28 48 -44 48 -22 0 6 -23 63 -51 125 -67 147 -74
148 -135 17z m86 1 c11 -25 20 -50 20 -55 0 -5 -21 -9 -46 -9 -33 0 -45 4 -41
13 29 73 40 97 43 97 3 0 14 -21 24 -46z"/>
<path d="M8567 1683 c-4 -3 -7 -60 -7 -125 0 -111 1 -118 20 -118 17 0 20 7
20 50 l0 50 35 0 c32 0 37 -4 60 -50 24 -47 46 -62 60 -40 7 11 -17 61 -39 79
-13 11 -12 15 11 35 31 27 34 77 7 107 -14 15 -31 19 -89 19 -39 0 -75 -3 -78
-7z m131 -35 c17 -17 15 -58 -4 -65 -9 -3 -33 -7 -53 -7 -35 -1 -36 0 -39 42
l-3 42 43 0 c24 0 49 -5 56 -12z"/>
<path d="M9309 1678 c-5 -70 -3 -198 3 -215 7 -21 14 -23 68 -23 60 0 97 11
112 34 13 19 9 64 -8 80 -14 14 -14 18 0 38 21 30 20 54 -4 78 -16 16 -33 20
-95 20 -53 0 -75 -4 -76 -12z m140 -37 c15 -28 -8 -51 -57 -58 l-42 -6 0 42 0
41 45 0 c33 0 47 -5 54 -19z m9 -120 c5 -32 -21 -51 -70 -51 -38 0 -38 0 -38
41 l0 40 53 -3 c47 -3 52 -6 55 -27z"/>
<path d="M9557 1684 c-9 -9 -9 -206 -1 -228 5 -13 22 -16 86 -16 70 0 79 2 76
18 -2 13 -15 18 -60 20 l-57 3 -3 102 c-2 82 -6 102 -18 105 -9 1 -19 0 -23
-4z"/>
<path d="M9758 1575 c-2 -64 -1 -120 0 -125 2 -6 40 -10 84 -10 70 0 79 2 76
18 -2 13 -15 18 -61 20 l-57 3 0 34 0 35 53 0 c58 0 68 4 60 26 -3 10 -22 14
-59 14 l-54 0 0 35 0 35 60 0 c47 0 60 3 60 15 0 12 -15 15 -79 15 l-80 0 -3
-115z"/>
<path d="M10334 1677 c-2 -7 -3 -62 -2 -123 3 -101 4 -109 23 -109 17 0 20 8
23 48 3 44 5 47 32 47 24 0 33 -8 57 -50 17 -30 35 -50 46 -50 23 0 21 17 -7
67 -19 33 -22 44 -12 50 17 10 36 47 36 68 0 9 -11 27 -25 40 -21 22 -33 25
-95 25 -49 0 -72 -4 -76 -13z m132 -25 c18 -12 23 -39 11 -56 -7 -9 -31 -18
-54 -21 l-43 -5 0 45 0 45 38 0 c20 0 42 -4 48 -8z"/>
<path d="M10840 1685 c0 -3 19 -60 42 -126 48 -137 65 -150 94 -71 10 26 25
67 34 91 l17 43 33 -91 c45 -126 56 -124 109 27 22 64 41 120 41 125 0 4 -8 7
-18 7 -12 0 -24 -19 -41 -67 -46 -131 -39 -129 -75 -28 -37 108 -55 119 -82
48 -9 -26 -25 -68 -34 -92 l-17 -45 -30 90 c-24 72 -34 90 -51 92 -12 2 -22 1
-22 -3z"/>
<path d="M11230 1675 c0 -11 12 -15 45 -15 l45 0 0 -105 c0 -86 3 -107 15
-112 9 -3 18 -3 20 -1 3 3 6 52 8 109 l2 104 43 3 c28 2 42 8 42 18 0 11 -21
14 -110 14 -91 0 -110 -3 -110 -15z"/>
<path d="M11487 1684 c-10 -11 -8 -216 2 -233 5 -8 16 -11 25 -8 12 5 16 20
16 57 l0 50 64 0 65 0 3 -52 c2 -41 7 -54 21 -56 15 -3 17 8 17 122 0 119 -1
126 -20 126 -17 0 -20 -7 -20 -50 l0 -50 -64 0 -65 0 -3 47 c-2 34 -8 49 -18
51 -9 1 -19 0 -23 -4z"/>
<path d="M7324 1476 c-3 -9 -1 -23 6 -31 7 -8 10 -22 6 -30 -7 -19 8 -20 23
-1 18 21 10 70 -12 74 -9 2 -20 -4 -23 -12z"/>
</g>
</svg>
